<svg width="299" height="270" viewBox="0 0 299 270" fill="none" xmlns="http://www.w3.org/2000/svg">
<circle cx="164" cy="135" r="135" fill="url(#paint0_linear_36:513)"/>
<g filter="url(#filter0_d_36:513)">
<rect x="60" y="54" width="207" height="163" rx="15" fill="white"/>
</g>
<path d="M60 69C60 60.7157 66.7157 54 75 54H252C260.284 54 267 60.7157 267 69H60Z" fill="#BCC3D1"/>
<rect x="80" y="81" width="95" height="6" rx="3" fill="#C4C4C4"/>
<rect x="80" y="95" width="145" height="6" rx="3" fill="#C4C4C4"/>
<rect x="80" y="115" width="95" height="70" rx="4" fill="#C4C4C4"/>
<rect x="80" y="195" width="95" height="35" rx="4" fill="#C4C4C4"/>
<rect x="185" y="115" width="95" height="40" rx="4" fill="#C4C4C4"/>
<rect x="185" y="165" width="68" height="40" rx="4" fill="#C4C4C4"/>
<circle cx="267" cy="213" r="20" fill="#1ABC9C"/>
<circle cx="267" cy="213" r="13" fill="#55DAC0"/>
<path d="M259 211.459L265.346 218L274 207" stroke="#E5E5E5" stroke-width="2" stroke-linecap="round"/>
<g filter="url(#filter1_d_36:513)">
<rect x="9" y="115" width="60" height="80" rx="6" fill="white"/>
</g>
<path d="M9 121C9 117.686 11.6863 115 15 115H63C66.3137 115 69 117.686 69 121V125H9V121Z" fill="#BCC3D1"/>
<circle cx="39" cy="147" r="14" fill="#3252DF"/>
<circle cx="39" cy="142" r="5" fill="white"/>
<circle cx="39" cy="157" r="10" fill="white"/>
<rect x="23" y="169" width="32" height="6" rx="3" fill="#C4C4C4"/>
<rect x="16" y="177" width="46" height="6" rx="3" fill="#C4C4C4"/>
<defs>
<filter id="filter0_d_36:513" x="39" y="45" width="237" height="193" filterUnits="userSpaceOnUse" color-interpolation-filters="sRGB">
<feFlood flood-opacity="0" result="BackgroundImageFix"/>
<feColorMatrix in="SourceAlpha" type="matrix" values="0 0 0 0 0 0 0 0 0 0 0 0 0 0 0 0 0 0 127 0" result="hardAlpha"/>
<feOffset dx="-6" dy="6"/>
<feGaussianBlur stdDeviation="7.5"/>
<feComposite in2="hardAlpha" operator="out"/>
<feColorMatrix type="matrix" values="0 0 0 0 0 0 0 0 0 0 0 0 0 0 0 0 0 0 0.05 0"/>
<feBlend mode="normal" in2="BackgroundImageFix" result="effect1_dropShadow_36:513"/>
<feBlend mode="normal" in="SourceGraphic" in2="effect1_dropShadow_36:513" result="shape"/>
</filter>
<filter id="filter1_d_36:513" x="0" y="106" width="90" height="110" filterUnits="userSpaceOnUse" color-interpolation-filters="sRGB">
<feFlood flood-opacity="0" result="BackgroundImageFix"/>
<feColorMatrix in="SourceAlpha" type="matrix" values="0 0 0 0 0 0 0 0 0 0 0 0 0 0 0 0 0 0 127 0" result="hardAlpha"/>
<feOffset dx="6" dy="6"/>
<feGaussianBlur stdDeviation="7.5"/>
<feComposite in2="hardAlpha" operator="out"/>
<feColorMatrix type="matrix" values="0 0 0 0 0 0 0 0 0 0 0 0 0 0 0 0 0 0 0.05 0"/>
<feBlend mode="normal" in2="BackgroundImageFix" result="effect1_dropShadow_36:513"/>
<feBlend mode="normal" in="SourceGraphic" in2="effect1_dropShadow_36:513" result="shape"/>
</filter>
<linearGradient id="paint0_linear_36:513" x1="269" y1="54" x2="57" y2="217" gradientUnits="userSpaceOnUse">
<stop stop-color="#F5F7FD"/>
<stop offset="1" stop-color="white" stop-opacity="0"/>
</linearGradient>
</defs>
</svg>
