<svg width="48" height="44" viewBox="0 0 48 44" fill="none" xmlns="http://www.w3.org/2000/svg">
<path d="M5.63413 18.8271C6.06797 18.0105 6.91718 17.5 7.84192 17.5H39.6067C40.5585 17.5 41.4277 18.0404 41.8488 18.894L44.8086 24.894C45.6282 26.5554 44.4192 28.5 42.5666 28.5H4.65442C2.7689 28.5 1.56203 26.4922 2.44663 24.8271L5.63413 18.8271Z" stroke="#152C5B" stroke-width="3"/>
<path d="M12 42.5C10.6193 42.5 9.5 41.3807 9.5 40V28.5H14.5V40C14.5 41.3807 13.3807 42.5 12 42.5Z" stroke="#152C5B" stroke-width="3"/>
<path d="M37 42.5C35.6193 42.5 34.5 41.3807 34.5 40V28.5H39.5V40C39.5 41.3807 38.3807 42.5 37 42.5Z" stroke="#152C5B" stroke-width="3"/>
<path d="M32 11C32 13.4585 32 16.0244 32 17" stroke="#152C5B" stroke-width="3" stroke-linecap="round"/>
<path d="M32 9.5C30.067 9.5 28.5 7.933 28.5 6V1.5H35.5V6C35.5 7.933 33.933 9.5 32 9.5Z" stroke="#FF498B" stroke-width="3"/>
<path d="M16 11C16 13.4585 16 16.0244 16 17" stroke="#152C5B" stroke-width="3" stroke-linecap="round"/>
<path d="M16 9.5C14.067 9.5 12.5 7.933 12.5 6V1.5H19.5V6C19.5 7.933 17.933 9.5 16 9.5Z" stroke="#FF498B" stroke-width="3"/>
</svg>
