<svg width="48" height="36" viewBox="0 0 48 36" fill="none" xmlns="http://www.w3.org/2000/svg">
<mask id="path-1-inside-1_12:962" fill="white">
<path fill-rule="evenodd" clip-rule="evenodd" d="M19.6503 0C18.9381 0 18.2797 0.37869 17.9216 0.99425L14.889 6.20669H8C3.58172 6.20669 0 9.78841 0 14.2067V27.9998C0 32.4181 3.58172 35.9998 8 35.9998H40C44.4183 35.9998 48 32.4181 48 27.9998V14.2067C48 9.78841 44.4183 6.20669 40 6.20669H33.111L30.0784 0.99425C29.7203 0.37869 29.0619 0 28.3497 0H19.6503Z"/>
</mask>
<path d="M17.9216 0.99425L20.5146 2.50287V2.50287L17.9216 0.99425ZM14.889 6.20669V9.20669H16.6144L17.4821 7.71531L14.889 6.20669ZM33.111 6.20669L30.5179 7.71531L31.3856 9.20669H33.111V6.20669ZM30.0784 0.99425L27.4854 2.50287V2.50287L30.0784 0.99425ZM20.5146 2.50287C20.3356 2.81065 20.0064 3 19.6503 3V-3C17.8699 -3 16.2238 -2.05327 15.3285 -0.514373L20.5146 2.50287ZM17.4821 7.71531L20.5146 2.50287L15.3285 -0.514374L12.2959 4.69806L17.4821 7.71531ZM8 9.20669H14.889V3.20669H8V9.20669ZM3 14.2067C3 11.4453 5.23858 9.20669 8 9.20669V3.20669C1.92487 3.20669 -3 8.13156 -3 14.2067H3ZM3 27.9998V14.2067H-3V27.9998H3ZM8 32.9998C5.23858 32.9998 3 30.7613 3 27.9998H-3C-3 34.075 1.92487 38.9998 8 38.9998V32.9998ZM40 32.9998H8V38.9998H40V32.9998ZM45 27.9998C45 30.7613 42.7614 32.9998 40 32.9998V38.9998C46.0751 38.9998 51 34.075 51 27.9998H45ZM45 14.2067V27.9998H51V14.2067H45ZM40 9.20669C42.7614 9.20669 45 11.4453 45 14.2067H51C51 8.13156 46.0751 3.20669 40 3.20669V9.20669ZM33.111 9.20669H40V3.20669H33.111V9.20669ZM27.4854 2.50287L30.5179 7.71531L35.7041 4.69806L32.6715 -0.514373L27.4854 2.50287ZM28.3497 3C27.9936 3 27.6644 2.81065 27.4854 2.50287L32.6715 -0.514373C31.7762 -2.05327 30.1301 -3 28.3497 -3V3ZM19.6503 3H28.3497V-3H19.6503V3Z" fill="#152C5B" mask="url(#path-1-inside-1_12:962)"/>
<circle cx="24" cy="21" r="6.5" stroke="#FF498B" stroke-width="3"/>
<path d="M35 13C37.4585 13 40.0244 13 41 13" stroke="#152C5B" stroke-width="3" stroke-linecap="round"/>
</svg>
