<svg width="48" height="42" viewBox="0 0 48 42" fill="none" xmlns="http://www.w3.org/2000/svg">
<path d="M1.5 4C1.5 2.61929 2.61929 1.5 4 1.5H44C45.3807 1.5 46.5 2.61929 46.5 4V16.5H1.5V4Z" stroke="#152C5B" stroke-width="3"/>
<path d="M1.5 16.5H46.5V22C46.5 23.3807 45.3807 24.5 44 24.5H4C2.61929 24.5 1.5 23.3807 1.5 22V16.5Z" stroke="#152C5B" stroke-width="3"/>
<path d="M18 9C22.9171 9 28.0488 9 30 9" stroke="#FF498B" stroke-width="3" stroke-linecap="round"/>
<path d="M41.0001 28C36.4811 31.5159 37.2625 36.8898 41.0001 40" stroke="#152C5B" stroke-width="3" stroke-linecap="round"/>
<path d="M33.1031 28C28.5841 31.5159 29.3655 36.8898 33.1031 40" stroke="#152C5B" stroke-width="3" stroke-linecap="round"/>
<path d="M6 28C12.2096 31.4358 10.7126 36.925 6 40" stroke="#152C5B" stroke-width="3" stroke-linecap="round"/>
<path d="M14 28C20.2096 31.4358 18.7126 36.925 14 40" stroke="#152C5B" stroke-width="3" stroke-linecap="round"/>
</svg>
