<svg width="30" height="48" viewBox="0 0 30 48" fill="none" xmlns="http://www.w3.org/2000/svg">
<path d="M28.5 42C28.5 42.2831 28.3628 42.7045 27.7906 43.2456C27.2152 43.7898 26.3022 44.3489 25.0495 44.8499C22.5525 45.8487 19.0002 46.5 15 46.5C10.9998 46.5 7.44745 45.8487 4.95048 44.8499C3.69784 44.3489 2.78479 43.7898 2.20944 43.2456C1.63725 42.7045 1.5 42.2831 1.5 42C1.5 41.7169 1.63725 41.2955 2.20944 40.7544C2.78479 40.2102 3.69784 39.6511 4.95048 39.1501C7.44745 38.1513 10.9998 37.5 15 37.5C19.0002 37.5 22.5525 38.1513 25.0495 39.1501C26.3022 39.6511 27.2152 40.2102 27.7906 40.7544C28.3628 41.2955 28.5 41.7169 28.5 42Z" stroke="#152C5B" stroke-width="3"/>
<path d="M27.5 12.9C27.5 16.1987 26.0025 23.1484 23.5091 29.3089C22.2683 32.3745 20.8229 35.1365 19.2715 37.1045C17.676 39.1283 16.2217 40 15 40C13.7783 40 12.324 39.1283 10.7285 37.1045C9.17712 35.1365 7.73172 32.3745 6.49093 29.3089C3.99749 23.1484 2.5 16.1987 2.5 12.9C2.5 6.71716 7.97851 1.5 15 1.5C22.0215 1.5 27.5 6.71716 27.5 12.9Z" fill="white" stroke="#152C5B" stroke-width="3"/>
<circle cx="15" cy="13" r="5.5" stroke="#FF498B" stroke-width="3"/>
</svg>
